<svg xmlns="http://www.w3.org/2000/svg" viewBox="0 0 800 600" shape-rendering="crispEdges" font-family="'Press Start 2P','Silkscreen','Courier New',monospace">
  <defs>
    <linearGradient id="titleBar" x1="0" x2="1" y1="0" y2="0">
      <stop offset="0%" stop-color="#ff2bd6"/>
      <stop offset="100%" stop-color="#00f5d4"/>
    </linearGradient>
  </defs>

  <rect width="800" height="600" fill="#1a1f2e"/>
  <rect x="0.5" y="0.5" width="799" height="599" fill="none" stroke="#4a5379" stroke-width="1"/>

  <rect x="0" y="0" width="800" height="48" fill="url(#titleBar)"/>
  <text x="20" y="32" font-size="18" font-weight="bold" fill="#05070d" letter-spacing="2">▶ MOVES // SPECIMEN_DECK</text>

  <g>
    <rect x="40" y="80" width="220" height="380" fill="#0a0e1a" fill-opacity="0.5" stroke="#2a3349" stroke-width="1"/>
    <text x="150" y="115" font-size="11" fill="#a0a4c0" text-anchor="middle" letter-spacing="1">0X01</text>
    <g transform="translate(54, 130) scale(12)"><rect x="5" y="2" width="1" height="1" fill="#e0e0ff"/><rect x="6" y="2" width="1" height="1" fill="#e0e0ff"/><rect x="7" y="2" width="1" height="1" fill="#e0e0ff"/><rect x="8" y="2" width="1" height="1" fill="#e0e0ff"/><rect x="4" y="3" width="1" height="1" fill="#e0e0ff"/><rect x="5" y="3" width="1" height="1" fill="#a0a4c0"/><rect x="6" y="3" width="1" height="1" fill="#a0a4c0"/><rect x="7" y="3" width="1" height="1" fill="#a0a4c0"/><rect x="8" y="3" width="1" height="1" fill="#a0a4c0"/><rect x="9" y="3" width="1" height="1" fill="#a0a4c0"/><rect x="10" y="3" width="1" height="1" fill="#0a0e1a"/><rect x="3" y="4" width="1" height="1" fill="#e0e0ff"/><rect x="4" y="4" width="1" height="1" fill="#a0a4c0"/><rect x="5" y="4" width="1" height="1" fill="#a0a4c0"/><rect x="6" y="4" width="1" height="1" fill="#a0a4c0"/><rect x="7" y="4" width="1" height="1" fill="#a0a4c0"/><rect x="8" y="4" width="1" height="1" fill="#a0a4c0"/><rect x="9" y="4" width="1" height="1" fill="#a0a4c0"/><rect x="10" y="4" width="1" height="1" fill="#a0a4c0"/><rect x="11" y="4" width="1" height="1" fill="#a0a4c0"/><rect x="12" y="4" width="1" height="1" fill="#0a0e1a"/><rect x="2" y="5" width="1" height="1" fill="#e0e0ff"/><rect x="3" y="5" width="1" height="1" fill="#a0a4c0"/><rect x="4" y="5" width="1" height="1" fill="#a0a4c0"/><rect x="5" y="5" width="1" height="1" fill="#a0a4c0"/><rect x="6" y="5" width="1" height="1" fill="#a0a4c0"/><rect x="7" y="5" width="1" height="1" fill="#a0a4c0"/><rect x="8" y="5" width="1" height="1" fill="#a0a4c0"/><rect x="9" y="5" width="1" height="1" fill="#a0a4c0"/><rect x="10" y="5" width="1" height="1" fill="#a0a4c0"/><rect x="11" y="5" width="1" height="1" fill="#a0a4c0"/><rect x="12" y="5" width="1" height="1" fill="#a0a4c0"/><rect x="13" y="5" width="1" height="1" fill="#0a0e1a"/><rect x="1" y="6" width="1" height="1" fill="#e0e0ff"/><rect x="2" y="6" width="1" height="1" fill="#a0a4c0"/><rect x="3" y="6" width="1" height="1" fill="#a0a4c0"/><rect x="4" y="6" width="1" height="1" fill="#a0a4c0"/><rect x="5" y="6" width="1" height="1" fill="#a0a4c0"/><rect x="6" y="6" width="1" height="1" fill="#a0a4c0"/><rect x="7" y="6" width="1" height="1" fill="#a0a4c0"/><rect x="8" y="6" width="1" height="1" fill="#a0a4c0"/><rect x="9" y="6" width="1" height="1" fill="#a0a4c0"/><rect x="10" y="6" width="1" height="1" fill="#a0a4c0"/><rect x="11" y="6" width="1" height="1" fill="#a0a4c0"/><rect x="12" y="6" width="1" height="1" fill="#a0a4c0"/><rect x="13" y="6" width="1" height="1" fill="#4a5379"/><rect x="14" y="6" width="1" height="1" fill="#0a0e1a"/><rect x="1" y="7" width="1" height="1" fill="#e0e0ff"/><rect x="2" y="7" width="1" height="1" fill="#a0a4c0"/><rect x="3" y="7" width="1" height="1" fill="#a0a4c0"/><rect x="4" y="7" width="1" height="1" fill="#a0a4c0"/><rect x="5" y="7" width="1" height="1" fill="#a0a4c0"/><rect x="6" y="7" width="1" height="1" fill="#a0a4c0"/><rect x="7" y="7" width="1" height="1" fill="#a0a4c0"/><rect x="8" y="7" width="1" height="1" fill="#a0a4c0"/><rect x="9" y="7" width="1" height="1" fill="#a0a4c0"/><rect x="10" y="7" width="1" height="1" fill="#a0a4c0"/><rect x="11" y="7" width="1" height="1" fill="#4a5379"/><rect x="12" y="7" width="1" height="1" fill="#4a5379"/><rect x="13" y="7" width="1" height="1" fill="#4a5379"/><rect x="14" y="7" width="1" height="1" fill="#0a0e1a"/><rect x="1" y="8" width="1" height="1" fill="#e0e0ff"/><rect x="2" y="8" width="1" height="1" fill="#a0a4c0"/><rect x="3" y="8" width="1" height="1" fill="#a0a4c0"/><rect x="4" y="8" width="1" height="1" fill="#a0a4c0"/><rect x="5" y="8" width="1" height="1" fill="#a0a4c0"/><rect x="6" y="8" width="1" height="1" fill="#a0a4c0"/><rect x="7" y="8" width="1" height="1" fill="#a0a4c0"/><rect x="8" y="8" width="1" height="1" fill="#a0a4c0"/><rect x="9" y="8" width="1" height="1" fill="#4a5379"/><rect x="10" y="8" width="1" height="1" fill="#4a5379"/><rect x="11" y="8" width="1" height="1" fill="#4a5379"/><rect x="12" y="8" width="1" height="1" fill="#4a5379"/><rect x="13" y="8" width="1" height="1" fill="#4a5379"/><rect x="14" y="8" width="1" height="1" fill="#0a0e1a"/><rect x="1" y="9" width="1" height="1" fill="#e0e0ff"/><rect x="2" y="9" width="1" height="1" fill="#a0a4c0"/><rect x="3" y="9" width="1" height="1" fill="#a0a4c0"/><rect x="4" y="9" width="1" height="1" fill="#a0a4c0"/><rect x="5" y="9" width="1" height="1" fill="#a0a4c0"/><rect x="6" y="9" width="1" height="1" fill="#a0a4c0"/><rect x="7" y="9" width="1" height="1" fill="#a0a4c0"/><rect x="8" y="9" width="1" height="1" fill="#4a5379"/><rect x="9" y="9" width="1" height="1" fill="#4a5379"/><rect x="10" y="9" width="1" height="1" fill="#4a5379"/><rect x="11" y="9" width="1" height="1" fill="#4a5379"/><rect x="12" y="9" width="1" height="1" fill="#4a5379"/><rect x="13" y="9" width="1" height="1" fill="#4a5379"/><rect x="14" y="9" width="1" height="1" fill="#0a0e1a"/><rect x="2" y="10" width="1" height="1" fill="#0a0e1a"/><rect x="3" y="10" width="1" height="1" fill="#a0a4c0"/><rect x="4" y="10" width="1" height="1" fill="#a0a4c0"/><rect x="5" y="10" width="1" height="1" fill="#a0a4c0"/><rect x="6" y="10" width="1" height="1" fill="#4a5379"/><rect x="7" y="10" width="1" height="1" fill="#4a5379"/><rect x="8" y="10" width="1" height="1" fill="#4a5379"/><rect x="9" y="10" width="1" height="1" fill="#4a5379"/><rect x="10" y="10" width="1" height="1" fill="#4a5379"/><rect x="11" y="10" width="1" height="1" fill="#4a5379"/><rect x="12" y="10" width="1" height="1" fill="#4a5379"/><rect x="13" y="10" width="1" height="1" fill="#0a0e1a"/><rect x="2" y="11" width="1" height="1" fill="#0a0e1a"/><rect x="3" y="11" width="1" height="1" fill="#4a5379"/><rect x="4" y="11" width="1" height="1" fill="#4a5379"/><rect x="5" y="11" width="1" height="1" fill="#4a5379"/><rect x="6" y="11" width="1" height="1" fill="#4a5379"/><rect x="7" y="11" width="1" height="1" fill="#4a5379"/><rect x="8" y="11" width="1" height="1" fill="#4a5379"/><rect x="9" y="11" width="1" height="1" fill="#4a5379"/><rect x="10" y="11" width="1" height="1" fill="#4a5379"/><rect x="11" y="11" width="1" height="1" fill="#4a5379"/><rect x="12" y="11" width="1" height="1" fill="#4a5379"/><rect x="13" y="11" width="1" height="1" fill="#0a0e1a"/><rect x="3" y="12" width="1" height="1" fill="#0a0e1a"/><rect x="4" y="12" width="1" height="1" fill="#4a5379"/><rect x="5" y="12" width="1" height="1" fill="#4a5379"/><rect x="6" y="12" width="1" height="1" fill="#4a5379"/><rect x="7" y="12" width="1" height="1" fill="#4a5379"/><rect x="8" y="12" width="1" height="1" fill="#4a5379"/><rect x="9" y="12" width="1" height="1" fill="#4a5379"/><rect x="10" y="12" width="1" height="1" fill="#4a5379"/><rect x="11" y="12" width="1" height="1" fill="#4a5379"/><rect x="12" y="12" width="1" height="1" fill="#0a0e1a"/><rect x="4" y="13" width="1" height="1" fill="#0a0e1a"/><rect x="5" y="13" width="1" height="1" fill="#0a0e1a"/><rect x="6" y="13" width="1" height="1" fill="#0a0e1a"/><rect x="7" y="13" width="1" height="1" fill="#0a0e1a"/><rect x="8" y="13" width="1" height="1" fill="#0a0e1a"/><rect x="9" y="13" width="1" height="1" fill="#0a0e1a"/><rect x="10" y="13" width="1" height="1" fill="#0a0e1a"/><rect x="11" y="13" width="1" height="1" fill="#0a0e1a"/></g>
    <text x="150" y="430" font-size="20" fill="#e0e0ff" text-anchor="middle" letter-spacing="2" font-weight="bold">ROCK</text>
  </g>
  <g>
    <rect x="290" y="80" width="220" height="380" fill="#0a0e1a" fill-opacity="0.5" stroke="#2a3349" stroke-width="1"/>
    <text x="400" y="115" font-size="11" fill="#a0a4c0" text-anchor="middle" letter-spacing="1">0X02</text>
    <g transform="translate(304, 130) scale(12)"><rect x="1" y="1" width="1" height="1" fill="#0a0e1a"/><rect x="2" y="1" width="1" height="1" fill="#0a0e1a"/><rect x="3" y="1" width="1" height="1" fill="#0a0e1a"/><rect x="4" y="1" width="1" height="1" fill="#0a0e1a"/><rect x="5" y="1" width="1" height="1" fill="#0a0e1a"/><rect x="6" y="1" width="1" height="1" fill="#0a0e1a"/><rect x="7" y="1" width="1" height="1" fill="#0a0e1a"/><rect x="8" y="1" width="1" height="1" fill="#0a0e1a"/><rect x="9" y="1" width="1" height="1" fill="#0a0e1a"/><rect x="10" y="1" width="1" height="1" fill="#0a0e1a"/><rect x="11" y="1" width="1" height="1" fill="#0a0e1a"/><rect x="12" y="1" width="1" height="1" fill="#0a0e1a"/><rect x="13" y="1" width="1" height="1" fill="#0a0e1a"/><rect x="1" y="2" width="1" height="1" fill="#0a0e1a"/><rect x="2" y="2" width="1" height="1" fill="#fffb00"/><rect x="3" y="2" width="1" height="1" fill="#fffb00"/><rect x="4" y="2" width="1" height="1" fill="#fffb00"/><rect x="5" y="2" width="1" height="1" fill="#fffb00"/><rect x="6" y="2" width="1" height="1" fill="#fffb00"/><rect x="7" y="2" width="1" height="1" fill="#fffb00"/><rect x="8" y="2" width="1" height="1" fill="#fffb00"/><rect x="9" y="2" width="1" height="1" fill="#fffb00"/><rect x="10" y="2" width="1" height="1" fill="#fffb00"/><rect x="11" y="2" width="1" height="1" fill="#fffb00"/><rect x="12" y="2" width="1" height="1" fill="#fffb00"/><rect x="13" y="2" width="1" height="1" fill="#0a0e1a"/><rect x="1" y="3" width="1" height="1" fill="#0a0e1a"/><rect x="2" y="3" width="1" height="1" fill="#fffb00"/><rect x="3" y="3" width="1" height="1" fill="#fffb00"/><rect x="4" y="3" width="1" height="1" fill="#fffb00"/><rect x="5" y="3" width="1" height="1" fill="#fffb00"/><rect x="6" y="3" width="1" height="1" fill="#fffb00"/><rect x="7" y="3" width="1" height="1" fill="#fffb00"/><rect x="8" y="3" width="1" height="1" fill="#fffb00"/><rect x="9" y="3" width="1" height="1" fill="#fffb00"/><rect x="10" y="3" width="1" height="1" fill="#fffb00"/><rect x="11" y="3" width="1" height="1" fill="#fffb00"/><rect x="12" y="3" width="1" height="1" fill="#fffb00"/><rect x="13" y="3" width="1" height="1" fill="#0a0e1a"/><rect x="1" y="4" width="1" height="1" fill="#0a0e1a"/><rect x="2" y="4" width="1" height="1" fill="#fffb00"/><rect x="3" y="4" width="1" height="1" fill="#a8a500"/><rect x="4" y="4" width="1" height="1" fill="#a8a500"/><rect x="5" y="4" width="1" height="1" fill="#a8a500"/><rect x="6" y="4" width="1" height="1" fill="#a8a500"/><rect x="7" y="4" width="1" height="1" fill="#a8a500"/><rect x="8" y="4" width="1" height="1" fill="#a8a500"/><rect x="9" y="4" width="1" height="1" fill="#a8a500"/><rect x="10" y="4" width="1" height="1" fill="#a8a500"/><rect x="11" y="4" width="1" height="1" fill="#a8a500"/><rect x="12" y="4" width="1" height="1" fill="#fffb00"/><rect x="13" y="4" width="1" height="1" fill="#0a0e1a"/><rect x="1" y="5" width="1" height="1" fill="#0a0e1a"/><rect x="2" y="5" width="1" height="1" fill="#fffb00"/><rect x="3" y="5" width="1" height="1" fill="#fffb00"/><rect x="4" y="5" width="1" height="1" fill="#fffb00"/><rect x="5" y="5" width="1" height="1" fill="#fffb00"/><rect x="6" y="5" width="1" height="1" fill="#fffb00"/><rect x="7" y="5" width="1" height="1" fill="#fffb00"/><rect x="8" y="5" width="1" height="1" fill="#fffb00"/><rect x="9" y="5" width="1" height="1" fill="#fffb00"/><rect x="10" y="5" width="1" height="1" fill="#fffb00"/><rect x="11" y="5" width="1" height="1" fill="#fffb00"/><rect x="12" y="5" width="1" height="1" fill="#fffb00"/><rect x="13" y="5" width="1" height="1" fill="#0a0e1a"/><rect x="1" y="6" width="1" height="1" fill="#0a0e1a"/><rect x="2" y="6" width="1" height="1" fill="#fffb00"/><rect x="3" y="6" width="1" height="1" fill="#a8a500"/><rect x="4" y="6" width="1" height="1" fill="#a8a500"/><rect x="5" y="6" width="1" height="1" fill="#a8a500"/><rect x="6" y="6" width="1" height="1" fill="#a8a500"/><rect x="7" y="6" width="1" height="1" fill="#a8a500"/><rect x="8" y="6" width="1" height="1" fill="#a8a500"/><rect x="9" y="6" width="1" height="1" fill="#a8a500"/><rect x="10" y="6" width="1" height="1" fill="#a8a500"/><rect x="11" y="6" width="1" height="1" fill="#a8a500"/><rect x="12" y="6" width="1" height="1" fill="#fffb00"/><rect x="13" y="6" width="1" height="1" fill="#0a0e1a"/><rect x="1" y="7" width="1" height="1" fill="#0a0e1a"/><rect x="2" y="7" width="1" height="1" fill="#fffb00"/><rect x="3" y="7" width="1" height="1" fill="#fffb00"/><rect x="4" y="7" width="1" height="1" fill="#fffb00"/><rect x="5" y="7" width="1" height="1" fill="#fffb00"/><rect x="6" y="7" width="1" height="1" fill="#fffb00"/><rect x="7" y="7" width="1" height="1" fill="#fffb00"/><rect x="8" y="7" width="1" height="1" fill="#fffb00"/><rect x="9" y="7" width="1" height="1" fill="#fffb00"/><rect x="10" y="7" width="1" height="1" fill="#fffb00"/><rect x="11" y="7" width="1" height="1" fill="#fffb00"/><rect x="12" y="7" width="1" height="1" fill="#fffb00"/><rect x="13" y="7" width="1" height="1" fill="#0a0e1a"/><rect x="1" y="8" width="1" height="1" fill="#0a0e1a"/><rect x="2" y="8" width="1" height="1" fill="#fffb00"/><rect x="3" y="8" width="1" height="1" fill="#a8a500"/><rect x="4" y="8" width="1" height="1" fill="#a8a500"/><rect x="5" y="8" width="1" height="1" fill="#a8a500"/><rect x="6" y="8" width="1" height="1" fill="#a8a500"/><rect x="7" y="8" width="1" height="1" fill="#a8a500"/><rect x="8" y="8" width="1" height="1" fill="#a8a500"/><rect x="9" y="8" width="1" height="1" fill="#a8a500"/><rect x="10" y="8" width="1" height="1" fill="#a8a500"/><rect x="11" y="8" width="1" height="1" fill="#a8a500"/><rect x="12" y="8" width="1" height="1" fill="#fffb00"/><rect x="13" y="8" width="1" height="1" fill="#0a0e1a"/><rect x="1" y="9" width="1" height="1" fill="#0a0e1a"/><rect x="2" y="9" width="1" height="1" fill="#fffb00"/><rect x="3" y="9" width="1" height="1" fill="#fffb00"/><rect x="4" y="9" width="1" height="1" fill="#fffb00"/><rect x="5" y="9" width="1" height="1" fill="#fffb00"/><rect x="6" y="9" width="1" height="1" fill="#fffb00"/><rect x="7" y="9" width="1" height="1" fill="#fffb00"/><rect x="8" y="9" width="1" height="1" fill="#fffb00"/><rect x="9" y="9" width="1" height="1" fill="#fffb00"/><rect x="10" y="9" width="1" height="1" fill="#fffb00"/><rect x="11" y="9" width="1" height="1" fill="#fffb00"/><rect x="12" y="9" width="1" height="1" fill="#fffb00"/><rect x="13" y="9" width="1" height="1" fill="#0a0e1a"/><rect x="1" y="10" width="1" height="1" fill="#0a0e1a"/><rect x="2" y="10" width="1" height="1" fill="#fffb00"/><rect x="3" y="10" width="1" height="1" fill="#a8a500"/><rect x="4" y="10" width="1" height="1" fill="#a8a500"/><rect x="5" y="10" width="1" height="1" fill="#a8a500"/><rect x="6" y="10" width="1" height="1" fill="#a8a500"/><rect x="7" y="10" width="1" height="1" fill="#a8a500"/><rect x="8" y="10" width="1" height="1" fill="#a8a500"/><rect x="9" y="10" width="1" height="1" fill="#a8a500"/><rect x="10" y="10" width="1" height="1" fill="#a8a500"/><rect x="11" y="10" width="1" height="1" fill="#a8a500"/><rect x="12" y="10" width="1" height="1" fill="#fffb00"/><rect x="13" y="10" width="1" height="1" fill="#0a0e1a"/><rect x="1" y="11" width="1" height="1" fill="#0a0e1a"/><rect x="2" y="11" width="1" height="1" fill="#fffb00"/><rect x="3" y="11" width="1" height="1" fill="#fffb00"/><rect x="4" y="11" width="1" height="1" fill="#fffb00"/><rect x="5" y="11" width="1" height="1" fill="#fffb00"/><rect x="6" y="11" width="1" height="1" fill="#fffb00"/><rect x="7" y="11" width="1" height="1" fill="#fffb00"/><rect x="8" y="11" width="1" height="1" fill="#fffb00"/><rect x="9" y="11" width="1" height="1" fill="#fffb00"/><rect x="10" y="11" width="1" height="1" fill="#fffb00"/><rect x="11" y="11" width="1" height="1" fill="#fffb00"/><rect x="12" y="11" width="1" height="1" fill="#fffb00"/><rect x="13" y="11" width="1" height="1" fill="#0a0e1a"/><rect x="1" y="12" width="1" height="1" fill="#0a0e1a"/><rect x="2" y="12" width="1" height="1" fill="#fffb00"/><rect x="3" y="12" width="1" height="1" fill="#fffb00"/><rect x="4" y="12" width="1" height="1" fill="#fffb00"/><rect x="5" y="12" width="1" height="1" fill="#fffb00"/><rect x="6" y="12" width="1" height="1" fill="#fffb00"/><rect x="7" y="12" width="1" height="1" fill="#fffb00"/><rect x="8" y="12" width="1" height="1" fill="#fffb00"/><rect x="9" y="12" width="1" height="1" fill="#fffb00"/><rect x="10" y="12" width="1" height="1" fill="#fffb00"/><rect x="11" y="12" width="1" height="1" fill="#fffb00"/><rect x="12" y="12" width="1" height="1" fill="#fffb00"/><rect x="13" y="12" width="1" height="1" fill="#0a0e1a"/><rect x="1" y="13" width="1" height="1" fill="#0a0e1a"/><rect x="2" y="13" width="1" height="1" fill="#0a0e1a"/><rect x="3" y="13" width="1" height="1" fill="#0a0e1a"/><rect x="4" y="13" width="1" height="1" fill="#0a0e1a"/><rect x="5" y="13" width="1" height="1" fill="#0a0e1a"/><rect x="6" y="13" width="1" height="1" fill="#0a0e1a"/><rect x="7" y="13" width="1" height="1" fill="#0a0e1a"/><rect x="8" y="13" width="1" height="1" fill="#0a0e1a"/><rect x="9" y="13" width="1" height="1" fill="#0a0e1a"/><rect x="10" y="13" width="1" height="1" fill="#0a0e1a"/><rect x="11" y="13" width="1" height="1" fill="#0a0e1a"/><rect x="12" y="13" width="1" height="1" fill="#0a0e1a"/><rect x="13" y="13" width="1" height="1" fill="#0a0e1a"/></g>
    <text x="400" y="430" font-size="20" fill="#e0e0ff" text-anchor="middle" letter-spacing="2" font-weight="bold">PAPER</text>
  </g>
  <g>
    <rect x="540" y="80" width="220" height="380" fill="#0a0e1a" fill-opacity="0.5" stroke="#2a3349" stroke-width="1"/>
    <text x="650" y="115" font-size="11" fill="#a0a4c0" text-anchor="middle" letter-spacing="1">0X03</text>
    <g transform="translate(554, 130) scale(12)"><rect x="1" y="1" width="1" height="1" fill="#0a0e1a"/><rect x="2" y="1" width="1" height="1" fill="#0a0e1a"/><rect x="12" y="1" width="1" height="1" fill="#0a0e1a"/><rect x="13" y="1" width="1" height="1" fill="#0a0e1a"/><rect x="1" y="2" width="1" height="1" fill="#0a0e1a"/><rect x="2" y="2" width="1" height="1" fill="#ff2bd6"/><rect x="3" y="2" width="1" height="1" fill="#0a0e1a"/><rect x="11" y="2" width="1" height="1" fill="#0a0e1a"/><rect x="12" y="2" width="1" height="1" fill="#ff2bd6"/><rect x="13" y="2" width="1" height="1" fill="#0a0e1a"/><rect x="2" y="3" width="1" height="1" fill="#0a0e1a"/><rect x="3" y="3" width="1" height="1" fill="#ff2bd6"/><rect x="4" y="3" width="1" height="1" fill="#0a0e1a"/><rect x="10" y="3" width="1" height="1" fill="#0a0e1a"/><rect x="11" y="3" width="1" height="1" fill="#ff2bd6"/><rect x="12" y="3" width="1" height="1" fill="#0a0e1a"/><rect x="3" y="4" width="1" height="1" fill="#0a0e1a"/><rect x="4" y="4" width="1" height="1" fill="#ff2bd6"/><rect x="5" y="4" width="1" height="1" fill="#0a0e1a"/><rect x="9" y="4" width="1" height="1" fill="#0a0e1a"/><rect x="10" y="4" width="1" height="1" fill="#ff2bd6"/><rect x="11" y="4" width="1" height="1" fill="#0a0e1a"/><rect x="4" y="5" width="1" height="1" fill="#0a0e1a"/><rect x="5" y="5" width="1" height="1" fill="#ff2bd6"/><rect x="6" y="5" width="1" height="1" fill="#0a0e1a"/><rect x="8" y="5" width="1" height="1" fill="#0a0e1a"/><rect x="9" y="5" width="1" height="1" fill="#ff2bd6"/><rect x="10" y="5" width="1" height="1" fill="#0a0e1a"/><rect x="5" y="6" width="1" height="1" fill="#0a0e1a"/><rect x="6" y="6" width="1" height="1" fill="#ff2bd6"/><rect x="7" y="6" width="1" height="1" fill="#0a0e1a"/><rect x="8" y="6" width="1" height="1" fill="#ff2bd6"/><rect x="9" y="6" width="1" height="1" fill="#0a0e1a"/><rect x="6" y="7" width="1" height="1" fill="#0a0e1a"/><rect x="7" y="7" width="1" height="1" fill="#0a0e1a"/><rect x="8" y="7" width="1" height="1" fill="#0a0e1a"/><rect x="6" y="8" width="1" height="1" fill="#0a0e1a"/><rect x="7" y="8" width="1" height="1" fill="#0a0e1a"/><rect x="8" y="8" width="1" height="1" fill="#0a0e1a"/><rect x="5" y="9" width="1" height="1" fill="#0a0e1a"/><rect x="6" y="9" width="1" height="1" fill="#ff2bd6"/><rect x="7" y="9" width="1" height="1" fill="#0a0e1a"/><rect x="8" y="9" width="1" height="1" fill="#ff2bd6"/><rect x="9" y="9" width="1" height="1" fill="#0a0e1a"/><rect x="4" y="10" width="1" height="1" fill="#0a0e1a"/><rect x="5" y="10" width="1" height="1" fill="#ff2bd6"/><rect x="6" y="10" width="1" height="1" fill="#0a0e1a"/><rect x="8" y="10" width="1" height="1" fill="#0a0e1a"/><rect x="9" y="10" width="1" height="1" fill="#ff2bd6"/><rect x="10" y="10" width="1" height="1" fill="#0a0e1a"/><rect x="3" y="11" width="1" height="1" fill="#0a0e1a"/><rect x="4" y="11" width="1" height="1" fill="#ff2bd6"/><rect x="5" y="11" width="1" height="1" fill="#0a0e1a"/><rect x="9" y="11" width="1" height="1" fill="#0a0e1a"/><rect x="10" y="11" width="1" height="1" fill="#ff2bd6"/><rect x="11" y="11" width="1" height="1" fill="#0a0e1a"/><rect x="2" y="12" width="1" height="1" fill="#0a0e1a"/><rect x="3" y="12" width="1" height="1" fill="#ff2bd6"/><rect x="4" y="12" width="1" height="1" fill="#0a0e1a"/><rect x="10" y="12" width="1" height="1" fill="#0a0e1a"/><rect x="11" y="12" width="1" height="1" fill="#ff2bd6"/><rect x="12" y="12" width="1" height="1" fill="#0a0e1a"/><rect x="1" y="13" width="1" height="1" fill="#0a0e1a"/><rect x="2" y="13" width="1" height="1" fill="#ff2bd6"/><rect x="3" y="13" width="1" height="1" fill="#0a0e1a"/><rect x="11" y="13" width="1" height="1" fill="#0a0e1a"/><rect x="12" y="13" width="1" height="1" fill="#ff2bd6"/><rect x="13" y="13" width="1" height="1" fill="#0a0e1a"/><rect x="1" y="14" width="1" height="1" fill="#0a0e1a"/><rect x="2" y="14" width="1" height="1" fill="#0a0e1a"/><rect x="12" y="14" width="1" height="1" fill="#0a0e1a"/><rect x="13" y="14" width="1" height="1" fill="#0a0e1a"/></g>
    <text x="650" y="430" font-size="20" fill="#e0e0ff" text-anchor="middle" letter-spacing="2" font-weight="bold">SCISSORS</text>
  </g>
  <text x="40" y="510" font-size="12" fill="#a0a4c0" letter-spacing="1.5">ROCK ▶ SCISSORS ▶ PAPER ▶ ROCK · COMMIT-REVEAL · KECCAK256</text>
  <text x="40" y="540" font-size="11" fill="#6a6e8a" letter-spacing="1">COMMITCLASH // ON-CHAIN.SOL</text>
</svg>

