<svg xmlns="http://www.w3.org/2000/svg" viewBox="0 0 1500 500" width="1500" height="500" shape-rendering="crispEdges" font-family="'Press Start 2P','Silkscreen','Courier New',monospace">
  <defs>
    <linearGradient id="titleBar" x1="0" x2="1" y1="0" y2="0">
      <stop offset="0%" stop-color="#ff2bd6"/>
      <stop offset="100%" stop-color="#00f5d4"/>
    </linearGradient>
  </defs>

  <!-- Background + subtle 16px pixel grid -->
  <rect width="1500" height="500" fill="#0a0e1a"/>
  <g stroke="#2a3349" stroke-width="0.5" opacity="0.35"><line x1="16" y1="50" x2="16" y2="500"/><line x1="32" y1="50" x2="32" y2="500"/><line x1="48" y1="50" x2="48" y2="500"/><line x1="64" y1="50" x2="64" y2="500"/><line x1="80" y1="50" x2="80" y2="500"/><line x1="96" y1="50" x2="96" y2="500"/><line x1="112" y1="50" x2="112" y2="500"/><line x1="128" y1="50" x2="128" y2="500"/><line x1="144" y1="50" x2="144" y2="500"/><line x1="160" y1="50" x2="160" y2="500"/><line x1="176" y1="50" x2="176" y2="500"/><line x1="192" y1="50" x2="192" y2="500"/><line x1="208" y1="50" x2="208" y2="500"/><line x1="224" y1="50" x2="224" y2="500"/><line x1="240" y1="50" x2="240" y2="500"/><line x1="256" y1="50" x2="256" y2="500"/><line x1="272" y1="50" x2="272" y2="500"/><line x1="288" y1="50" x2="288" y2="500"/><line x1="304" y1="50" x2="304" y2="500"/><line x1="320" y1="50" x2="320" y2="500"/><line x1="336" y1="50" x2="336" y2="500"/><line x1="352" y1="50" x2="352" y2="500"/><line x1="368" y1="50" x2="368" y2="500"/><line x1="384" y1="50" x2="384" y2="500"/><line x1="400" y1="50" x2="400" y2="500"/><line x1="416" y1="50" x2="416" y2="500"/><line x1="432" y1="50" x2="432" y2="500"/><line x1="448" y1="50" x2="448" y2="500"/><line x1="464" y1="50" x2="464" y2="500"/><line x1="480" y1="50" x2="480" y2="500"/><line x1="496" y1="50" x2="496" y2="500"/><line x1="512" y1="50" x2="512" y2="500"/><line x1="528" y1="50" x2="528" y2="500"/><line x1="544" y1="50" x2="544" y2="500"/><line x1="560" y1="50" x2="560" y2="500"/><line x1="576" y1="50" x2="576" y2="500"/><line x1="592" y1="50" x2="592" y2="500"/><line x1="608" y1="50" x2="608" y2="500"/><line x1="624" y1="50" x2="624" y2="500"/><line x1="640" y1="50" x2="640" y2="500"/><line x1="656" y1="50" x2="656" y2="500"/><line x1="672" y1="50" x2="672" y2="500"/><line x1="688" y1="50" x2="688" y2="500"/><line x1="704" y1="50" x2="704" y2="500"/><line x1="720" y1="50" x2="720" y2="500"/><line x1="736" y1="50" x2="736" y2="500"/><line x1="752" y1="50" x2="752" y2="500"/><line x1="768" y1="50" x2="768" y2="500"/><line x1="784" y1="50" x2="784" y2="500"/><line x1="800" y1="50" x2="800" y2="500"/><line x1="816" y1="50" x2="816" y2="500"/><line x1="832" y1="50" x2="832" y2="500"/><line x1="848" y1="50" x2="848" y2="500"/><line x1="864" y1="50" x2="864" y2="500"/><line x1="880" y1="50" x2="880" y2="500"/><line x1="896" y1="50" x2="896" y2="500"/><line x1="912" y1="50" x2="912" y2="500"/><line x1="928" y1="50" x2="928" y2="500"/><line x1="944" y1="50" x2="944" y2="500"/><line x1="960" y1="50" x2="960" y2="500"/><line x1="976" y1="50" x2="976" y2="500"/><line x1="992" y1="50" x2="992" y2="500"/><line x1="1008" y1="50" x2="1008" y2="500"/><line x1="1024" y1="50" x2="1024" y2="500"/><line x1="1040" y1="50" x2="1040" y2="500"/><line x1="1056" y1="50" x2="1056" y2="500"/><line x1="1072" y1="50" x2="1072" y2="500"/><line x1="1088" y1="50" x2="1088" y2="500"/><line x1="1104" y1="50" x2="1104" y2="500"/><line x1="1120" y1="50" x2="1120" y2="500"/><line x1="1136" y1="50" x2="1136" y2="500"/><line x1="1152" y1="50" x2="1152" y2="500"/><line x1="1168" y1="50" x2="1168" y2="500"/><line x1="1184" y1="50" x2="1184" y2="500"/><line x1="1200" y1="50" x2="1200" y2="500"/><line x1="1216" y1="50" x2="1216" y2="500"/><line x1="1232" y1="50" x2="1232" y2="500"/><line x1="1248" y1="50" x2="1248" y2="500"/><line x1="1264" y1="50" x2="1264" y2="500"/><line x1="1280" y1="50" x2="1280" y2="500"/><line x1="1296" y1="50" x2="1296" y2="500"/><line x1="1312" y1="50" x2="1312" y2="500"/><line x1="1328" y1="50" x2="1328" y2="500"/><line x1="1344" y1="50" x2="1344" y2="500"/><line x1="1360" y1="50" x2="1360" y2="500"/><line x1="1376" y1="50" x2="1376" y2="500"/><line x1="1392" y1="50" x2="1392" y2="500"/><line x1="1408" y1="50" x2="1408" y2="500"/><line x1="1424" y1="50" x2="1424" y2="500"/><line x1="1440" y1="50" x2="1440" y2="500"/><line x1="1456" y1="50" x2="1456" y2="500"/><line x1="1472" y1="50" x2="1472" y2="500"/><line x1="1488" y1="50" x2="1488" y2="500"/><line x1="0" y1="66" x2="1500" y2="66"/><line x1="0" y1="82" x2="1500" y2="82"/><line x1="0" y1="98" x2="1500" y2="98"/><line x1="0" y1="114" x2="1500" y2="114"/><line x1="0" y1="130" x2="1500" y2="130"/><line x1="0" y1="146" x2="1500" y2="146"/><line x1="0" y1="162" x2="1500" y2="162"/><line x1="0" y1="178" x2="1500" y2="178"/><line x1="0" y1="194" x2="1500" y2="194"/><line x1="0" y1="210" x2="1500" y2="210"/><line x1="0" y1="226" x2="1500" y2="226"/><line x1="0" y1="242" x2="1500" y2="242"/><line x1="0" y1="258" x2="1500" y2="258"/><line x1="0" y1="274" x2="1500" y2="274"/><line x1="0" y1="290" x2="1500" y2="290"/><line x1="0" y1="306" x2="1500" y2="306"/><line x1="0" y1="322" x2="1500" y2="322"/><line x1="0" y1="338" x2="1500" y2="338"/><line x1="0" y1="354" x2="1500" y2="354"/><line x1="0" y1="370" x2="1500" y2="370"/><line x1="0" y1="386" x2="1500" y2="386"/><line x1="0" y1="402" x2="1500" y2="402"/><line x1="0" y1="418" x2="1500" y2="418"/><line x1="0" y1="434" x2="1500" y2="434"/><line x1="0" y1="450" x2="1500" y2="450"/><line x1="0" y1="466" x2="1500" y2="466"/><line x1="0" y1="482" x2="1500" y2="482"/><line x1="0" y1="498" x2="1500" y2="498"/>
  </g>

  <!-- Top gradient title bar (full width) -->
  <rect x="0" y="0" width="1500" height="50" fill="url(#titleBar)"/>
  <text x="30" y="33" font-size="18" font-weight="bold" fill="#05070d" letter-spacing="2">▶ COMMITCLASH // RPS ON-CHAIN.SOL</text>
  <text x="1470" y="33" font-size="14" font-weight="bold" fill="#05070d" text-anchor="end" letter-spacing="2">85% / 7.5% BURN / 7.5% TREASURY</text>

  <!-- Left brand block (centered vertically in middle-upper area, above the Twitter avatar zone) -->
  <text x="60" y="180" font-size="56" font-weight="bold" fill="#ff2bd6" letter-spacing="4" filter="url(#mglow)">COMMITCLASH</text>
  <text x="60" y="220" font-size="22" fill="#00f5d4" letter-spacing="3">RPS. ON-CHAIN. NO HOUSE. NO EDGE.</text>
  <text x="60" y="260" font-size="16" fill="#a0a4c0" letter-spacing="2">stake $RPS · keccak256 commit-reveal · real burns</text>
  <text x="60" y="290" font-size="14" fill="#00ff88" letter-spacing="2">▶ COMMITCLASH.SOL</text>

  <defs>
    <filter id="mglow" x="-10%" y="-50%" width="120%" height="200%">
      <feDropShadow dx="0" dy="0" stdDeviation="4" flood-color="#ff2bd6" flood-opacity="0.7"/>
    </filter>
  </defs>

  <g>
    <text x="780" y="90" font-size="11" fill="#a0a4c0" text-anchor="middle" letter-spacing="1">0X01</text>
    <g transform="translate(668, 110) scale(14)"><rect x="5" y="2" width="1" height="1" fill="#e0e0ff"/><rect x="6" y="2" width="1" height="1" fill="#e0e0ff"/><rect x="7" y="2" width="1" height="1" fill="#e0e0ff"/><rect x="8" y="2" width="1" height="1" fill="#e0e0ff"/><rect x="4" y="3" width="1" height="1" fill="#e0e0ff"/><rect x="5" y="3" width="1" height="1" fill="#a0a4c0"/><rect x="6" y="3" width="1" height="1" fill="#a0a4c0"/><rect x="7" y="3" width="1" height="1" fill="#a0a4c0"/><rect x="8" y="3" width="1" height="1" fill="#a0a4c0"/><rect x="9" y="3" width="1" height="1" fill="#a0a4c0"/><rect x="10" y="3" width="1" height="1" fill="#0a0e1a"/><rect x="3" y="4" width="1" height="1" fill="#e0e0ff"/><rect x="4" y="4" width="1" height="1" fill="#a0a4c0"/><rect x="5" y="4" width="1" height="1" fill="#a0a4c0"/><rect x="6" y="4" width="1" height="1" fill="#a0a4c0"/><rect x="7" y="4" width="1" height="1" fill="#a0a4c0"/><rect x="8" y="4" width="1" height="1" fill="#a0a4c0"/><rect x="9" y="4" width="1" height="1" fill="#a0a4c0"/><rect x="10" y="4" width="1" height="1" fill="#a0a4c0"/><rect x="11" y="4" width="1" height="1" fill="#a0a4c0"/><rect x="12" y="4" width="1" height="1" fill="#0a0e1a"/><rect x="2" y="5" width="1" height="1" fill="#e0e0ff"/><rect x="3" y="5" width="1" height="1" fill="#a0a4c0"/><rect x="4" y="5" width="1" height="1" fill="#a0a4c0"/><rect x="5" y="5" width="1" height="1" fill="#a0a4c0"/><rect x="6" y="5" width="1" height="1" fill="#a0a4c0"/><rect x="7" y="5" width="1" height="1" fill="#a0a4c0"/><rect x="8" y="5" width="1" height="1" fill="#a0a4c0"/><rect x="9" y="5" width="1" height="1" fill="#a0a4c0"/><rect x="10" y="5" width="1" height="1" fill="#a0a4c0"/><rect x="11" y="5" width="1" height="1" fill="#a0a4c0"/><rect x="12" y="5" width="1" height="1" fill="#a0a4c0"/><rect x="13" y="5" width="1" height="1" fill="#0a0e1a"/><rect x="1" y="6" width="1" height="1" fill="#e0e0ff"/><rect x="2" y="6" width="1" height="1" fill="#a0a4c0"/><rect x="3" y="6" width="1" height="1" fill="#a0a4c0"/><rect x="4" y="6" width="1" height="1" fill="#a0a4c0"/><rect x="5" y="6" width="1" height="1" fill="#a0a4c0"/><rect x="6" y="6" width="1" height="1" fill="#a0a4c0"/><rect x="7" y="6" width="1" height="1" fill="#a0a4c0"/><rect x="8" y="6" width="1" height="1" fill="#a0a4c0"/><rect x="9" y="6" width="1" height="1" fill="#a0a4c0"/><rect x="10" y="6" width="1" height="1" fill="#a0a4c0"/><rect x="11" y="6" width="1" height="1" fill="#a0a4c0"/><rect x="12" y="6" width="1" height="1" fill="#a0a4c0"/><rect x="13" y="6" width="1" height="1" fill="#4a5379"/><rect x="14" y="6" width="1" height="1" fill="#0a0e1a"/><rect x="1" y="7" width="1" height="1" fill="#e0e0ff"/><rect x="2" y="7" width="1" height="1" fill="#a0a4c0"/><rect x="3" y="7" width="1" height="1" fill="#a0a4c0"/><rect x="4" y="7" width="1" height="1" fill="#a0a4c0"/><rect x="5" y="7" width="1" height="1" fill="#a0a4c0"/><rect x="6" y="7" width="1" height="1" fill="#a0a4c0"/><rect x="7" y="7" width="1" height="1" fill="#a0a4c0"/><rect x="8" y="7" width="1" height="1" fill="#a0a4c0"/><rect x="9" y="7" width="1" height="1" fill="#a0a4c0"/><rect x="10" y="7" width="1" height="1" fill="#a0a4c0"/><rect x="11" y="7" width="1" height="1" fill="#4a5379"/><rect x="12" y="7" width="1" height="1" fill="#4a5379"/><rect x="13" y="7" width="1" height="1" fill="#4a5379"/><rect x="14" y="7" width="1" height="1" fill="#0a0e1a"/><rect x="1" y="8" width="1" height="1" fill="#e0e0ff"/><rect x="2" y="8" width="1" height="1" fill="#a0a4c0"/><rect x="3" y="8" width="1" height="1" fill="#a0a4c0"/><rect x="4" y="8" width="1" height="1" fill="#a0a4c0"/><rect x="5" y="8" width="1" height="1" fill="#a0a4c0"/><rect x="6" y="8" width="1" height="1" fill="#a0a4c0"/><rect x="7" y="8" width="1" height="1" fill="#a0a4c0"/><rect x="8" y="8" width="1" height="1" fill="#a0a4c0"/><rect x="9" y="8" width="1" height="1" fill="#4a5379"/><rect x="10" y="8" width="1" height="1" fill="#4a5379"/><rect x="11" y="8" width="1" height="1" fill="#4a5379"/><rect x="12" y="8" width="1" height="1" fill="#4a5379"/><rect x="13" y="8" width="1" height="1" fill="#4a5379"/><rect x="14" y="8" width="1" height="1" fill="#0a0e1a"/><rect x="1" y="9" width="1" height="1" fill="#e0e0ff"/><rect x="2" y="9" width="1" height="1" fill="#a0a4c0"/><rect x="3" y="9" width="1" height="1" fill="#a0a4c0"/><rect x="4" y="9" width="1" height="1" fill="#a0a4c0"/><rect x="5" y="9" width="1" height="1" fill="#a0a4c0"/><rect x="6" y="9" width="1" height="1" fill="#a0a4c0"/><rect x="7" y="9" width="1" height="1" fill="#a0a4c0"/><rect x="8" y="9" width="1" height="1" fill="#4a5379"/><rect x="9" y="9" width="1" height="1" fill="#4a5379"/><rect x="10" y="9" width="1" height="1" fill="#4a5379"/><rect x="11" y="9" width="1" height="1" fill="#4a5379"/><rect x="12" y="9" width="1" height="1" fill="#4a5379"/><rect x="13" y="9" width="1" height="1" fill="#4a5379"/><rect x="14" y="9" width="1" height="1" fill="#0a0e1a"/><rect x="2" y="10" width="1" height="1" fill="#0a0e1a"/><rect x="3" y="10" width="1" height="1" fill="#a0a4c0"/><rect x="4" y="10" width="1" height="1" fill="#a0a4c0"/><rect x="5" y="10" width="1" height="1" fill="#a0a4c0"/><rect x="6" y="10" width="1" height="1" fill="#4a5379"/><rect x="7" y="10" width="1" height="1" fill="#4a5379"/><rect x="8" y="10" width="1" height="1" fill="#4a5379"/><rect x="9" y="10" width="1" height="1" fill="#4a5379"/><rect x="10" y="10" width="1" height="1" fill="#4a5379"/><rect x="11" y="10" width="1" height="1" fill="#4a5379"/><rect x="12" y="10" width="1" height="1" fill="#4a5379"/><rect x="13" y="10" width="1" height="1" fill="#0a0e1a"/><rect x="2" y="11" width="1" height="1" fill="#0a0e1a"/><rect x="3" y="11" width="1" height="1" fill="#4a5379"/><rect x="4" y="11" width="1" height="1" fill="#4a5379"/><rect x="5" y="11" width="1" height="1" fill="#4a5379"/><rect x="6" y="11" width="1" height="1" fill="#4a5379"/><rect x="7" y="11" width="1" height="1" fill="#4a5379"/><rect x="8" y="11" width="1" height="1" fill="#4a5379"/><rect x="9" y="11" width="1" height="1" fill="#4a5379"/><rect x="10" y="11" width="1" height="1" fill="#4a5379"/><rect x="11" y="11" width="1" height="1" fill="#4a5379"/><rect x="12" y="11" width="1" height="1" fill="#4a5379"/><rect x="13" y="11" width="1" height="1" fill="#0a0e1a"/><rect x="3" y="12" width="1" height="1" fill="#0a0e1a"/><rect x="4" y="12" width="1" height="1" fill="#4a5379"/><rect x="5" y="12" width="1" height="1" fill="#4a5379"/><rect x="6" y="12" width="1" height="1" fill="#4a5379"/><rect x="7" y="12" width="1" height="1" fill="#4a5379"/><rect x="8" y="12" width="1" height="1" fill="#4a5379"/><rect x="9" y="12" width="1" height="1" fill="#4a5379"/><rect x="10" y="12" width="1" height="1" fill="#4a5379"/><rect x="11" y="12" width="1" height="1" fill="#4a5379"/><rect x="12" y="12" width="1" height="1" fill="#0a0e1a"/><rect x="4" y="13" width="1" height="1" fill="#0a0e1a"/><rect x="5" y="13" width="1" height="1" fill="#0a0e1a"/><rect x="6" y="13" width="1" height="1" fill="#0a0e1a"/><rect x="7" y="13" width="1" height="1" fill="#0a0e1a"/><rect x="8" y="13" width="1" height="1" fill="#0a0e1a"/><rect x="9" y="13" width="1" height="1" fill="#0a0e1a"/><rect x="10" y="13" width="1" height="1" fill="#0a0e1a"/><rect x="11" y="13" width="1" height="1" fill="#0a0e1a"/></g>
    <text x="780" y="369" font-size="20" fill="#e0e0ff" text-anchor="middle" letter-spacing="2" font-weight="bold">ROCK</text>
  </g>
  <g>
    <text x="1054" y="90" font-size="11" fill="#a0a4c0" text-anchor="middle" letter-spacing="1">0X02</text>
    <g transform="translate(942, 110) scale(14)"><rect x="1" y="1" width="1" height="1" fill="#0a0e1a"/><rect x="2" y="1" width="1" height="1" fill="#0a0e1a"/><rect x="3" y="1" width="1" height="1" fill="#0a0e1a"/><rect x="4" y="1" width="1" height="1" fill="#0a0e1a"/><rect x="5" y="1" width="1" height="1" fill="#0a0e1a"/><rect x="6" y="1" width="1" height="1" fill="#0a0e1a"/><rect x="7" y="1" width="1" height="1" fill="#0a0e1a"/><rect x="8" y="1" width="1" height="1" fill="#0a0e1a"/><rect x="9" y="1" width="1" height="1" fill="#0a0e1a"/><rect x="10" y="1" width="1" height="1" fill="#0a0e1a"/><rect x="11" y="1" width="1" height="1" fill="#0a0e1a"/><rect x="12" y="1" width="1" height="1" fill="#0a0e1a"/><rect x="13" y="1" width="1" height="1" fill="#0a0e1a"/><rect x="1" y="2" width="1" height="1" fill="#0a0e1a"/><rect x="2" y="2" width="1" height="1" fill="#fffb00"/><rect x="3" y="2" width="1" height="1" fill="#fffb00"/><rect x="4" y="2" width="1" height="1" fill="#fffb00"/><rect x="5" y="2" width="1" height="1" fill="#fffb00"/><rect x="6" y="2" width="1" height="1" fill="#fffb00"/><rect x="7" y="2" width="1" height="1" fill="#fffb00"/><rect x="8" y="2" width="1" height="1" fill="#fffb00"/><rect x="9" y="2" width="1" height="1" fill="#fffb00"/><rect x="10" y="2" width="1" height="1" fill="#fffb00"/><rect x="11" y="2" width="1" height="1" fill="#fffb00"/><rect x="12" y="2" width="1" height="1" fill="#fffb00"/><rect x="13" y="2" width="1" height="1" fill="#0a0e1a"/><rect x="1" y="3" width="1" height="1" fill="#0a0e1a"/><rect x="2" y="3" width="1" height="1" fill="#fffb00"/><rect x="3" y="3" width="1" height="1" fill="#fffb00"/><rect x="4" y="3" width="1" height="1" fill="#fffb00"/><rect x="5" y="3" width="1" height="1" fill="#fffb00"/><rect x="6" y="3" width="1" height="1" fill="#fffb00"/><rect x="7" y="3" width="1" height="1" fill="#fffb00"/><rect x="8" y="3" width="1" height="1" fill="#fffb00"/><rect x="9" y="3" width="1" height="1" fill="#fffb00"/><rect x="10" y="3" width="1" height="1" fill="#fffb00"/><rect x="11" y="3" width="1" height="1" fill="#fffb00"/><rect x="12" y="3" width="1" height="1" fill="#fffb00"/><rect x="13" y="3" width="1" height="1" fill="#0a0e1a"/><rect x="1" y="4" width="1" height="1" fill="#0a0e1a"/><rect x="2" y="4" width="1" height="1" fill="#fffb00"/><rect x="3" y="4" width="1" height="1" fill="#a8a500"/><rect x="4" y="4" width="1" height="1" fill="#a8a500"/><rect x="5" y="4" width="1" height="1" fill="#a8a500"/><rect x="6" y="4" width="1" height="1" fill="#a8a500"/><rect x="7" y="4" width="1" height="1" fill="#a8a500"/><rect x="8" y="4" width="1" height="1" fill="#a8a500"/><rect x="9" y="4" width="1" height="1" fill="#a8a500"/><rect x="10" y="4" width="1" height="1" fill="#a8a500"/><rect x="11" y="4" width="1" height="1" fill="#a8a500"/><rect x="12" y="4" width="1" height="1" fill="#fffb00"/><rect x="13" y="4" width="1" height="1" fill="#0a0e1a"/><rect x="1" y="5" width="1" height="1" fill="#0a0e1a"/><rect x="2" y="5" width="1" height="1" fill="#fffb00"/><rect x="3" y="5" width="1" height="1" fill="#fffb00"/><rect x="4" y="5" width="1" height="1" fill="#fffb00"/><rect x="5" y="5" width="1" height="1" fill="#fffb00"/><rect x="6" y="5" width="1" height="1" fill="#fffb00"/><rect x="7" y="5" width="1" height="1" fill="#fffb00"/><rect x="8" y="5" width="1" height="1" fill="#fffb00"/><rect x="9" y="5" width="1" height="1" fill="#fffb00"/><rect x="10" y="5" width="1" height="1" fill="#fffb00"/><rect x="11" y="5" width="1" height="1" fill="#fffb00"/><rect x="12" y="5" width="1" height="1" fill="#fffb00"/><rect x="13" y="5" width="1" height="1" fill="#0a0e1a"/><rect x="1" y="6" width="1" height="1" fill="#0a0e1a"/><rect x="2" y="6" width="1" height="1" fill="#fffb00"/><rect x="3" y="6" width="1" height="1" fill="#a8a500"/><rect x="4" y="6" width="1" height="1" fill="#a8a500"/><rect x="5" y="6" width="1" height="1" fill="#a8a500"/><rect x="6" y="6" width="1" height="1" fill="#a8a500"/><rect x="7" y="6" width="1" height="1" fill="#a8a500"/><rect x="8" y="6" width="1" height="1" fill="#a8a500"/><rect x="9" y="6" width="1" height="1" fill="#a8a500"/><rect x="10" y="6" width="1" height="1" fill="#a8a500"/><rect x="11" y="6" width="1" height="1" fill="#a8a500"/><rect x="12" y="6" width="1" height="1" fill="#fffb00"/><rect x="13" y="6" width="1" height="1" fill="#0a0e1a"/><rect x="1" y="7" width="1" height="1" fill="#0a0e1a"/><rect x="2" y="7" width="1" height="1" fill="#fffb00"/><rect x="3" y="7" width="1" height="1" fill="#fffb00"/><rect x="4" y="7" width="1" height="1" fill="#fffb00"/><rect x="5" y="7" width="1" height="1" fill="#fffb00"/><rect x="6" y="7" width="1" height="1" fill="#fffb00"/><rect x="7" y="7" width="1" height="1" fill="#fffb00"/><rect x="8" y="7" width="1" height="1" fill="#fffb00"/><rect x="9" y="7" width="1" height="1" fill="#fffb00"/><rect x="10" y="7" width="1" height="1" fill="#fffb00"/><rect x="11" y="7" width="1" height="1" fill="#fffb00"/><rect x="12" y="7" width="1" height="1" fill="#fffb00"/><rect x="13" y="7" width="1" height="1" fill="#0a0e1a"/><rect x="1" y="8" width="1" height="1" fill="#0a0e1a"/><rect x="2" y="8" width="1" height="1" fill="#fffb00"/><rect x="3" y="8" width="1" height="1" fill="#a8a500"/><rect x="4" y="8" width="1" height="1" fill="#a8a500"/><rect x="5" y="8" width="1" height="1" fill="#a8a500"/><rect x="6" y="8" width="1" height="1" fill="#a8a500"/><rect x="7" y="8" width="1" height="1" fill="#a8a500"/><rect x="8" y="8" width="1" height="1" fill="#a8a500"/><rect x="9" y="8" width="1" height="1" fill="#a8a500"/><rect x="10" y="8" width="1" height="1" fill="#a8a500"/><rect x="11" y="8" width="1" height="1" fill="#a8a500"/><rect x="12" y="8" width="1" height="1" fill="#fffb00"/><rect x="13" y="8" width="1" height="1" fill="#0a0e1a"/><rect x="1" y="9" width="1" height="1" fill="#0a0e1a"/><rect x="2" y="9" width="1" height="1" fill="#fffb00"/><rect x="3" y="9" width="1" height="1" fill="#fffb00"/><rect x="4" y="9" width="1" height="1" fill="#fffb00"/><rect x="5" y="9" width="1" height="1" fill="#fffb00"/><rect x="6" y="9" width="1" height="1" fill="#fffb00"/><rect x="7" y="9" width="1" height="1" fill="#fffb00"/><rect x="8" y="9" width="1" height="1" fill="#fffb00"/><rect x="9" y="9" width="1" height="1" fill="#fffb00"/><rect x="10" y="9" width="1" height="1" fill="#fffb00"/><rect x="11" y="9" width="1" height="1" fill="#fffb00"/><rect x="12" y="9" width="1" height="1" fill="#fffb00"/><rect x="13" y="9" width="1" height="1" fill="#0a0e1a"/><rect x="1" y="10" width="1" height="1" fill="#0a0e1a"/><rect x="2" y="10" width="1" height="1" fill="#fffb00"/><rect x="3" y="10" width="1" height="1" fill="#a8a500"/><rect x="4" y="10" width="1" height="1" fill="#a8a500"/><rect x="5" y="10" width="1" height="1" fill="#a8a500"/><rect x="6" y="10" width="1" height="1" fill="#a8a500"/><rect x="7" y="10" width="1" height="1" fill="#a8a500"/><rect x="8" y="10" width="1" height="1" fill="#a8a500"/><rect x="9" y="10" width="1" height="1" fill="#a8a500"/><rect x="10" y="10" width="1" height="1" fill="#a8a500"/><rect x="11" y="10" width="1" height="1" fill="#a8a500"/><rect x="12" y="10" width="1" height="1" fill="#fffb00"/><rect x="13" y="10" width="1" height="1" fill="#0a0e1a"/><rect x="1" y="11" width="1" height="1" fill="#0a0e1a"/><rect x="2" y="11" width="1" height="1" fill="#fffb00"/><rect x="3" y="11" width="1" height="1" fill="#fffb00"/><rect x="4" y="11" width="1" height="1" fill="#fffb00"/><rect x="5" y="11" width="1" height="1" fill="#fffb00"/><rect x="6" y="11" width="1" height="1" fill="#fffb00"/><rect x="7" y="11" width="1" height="1" fill="#fffb00"/><rect x="8" y="11" width="1" height="1" fill="#fffb00"/><rect x="9" y="11" width="1" height="1" fill="#fffb00"/><rect x="10" y="11" width="1" height="1" fill="#fffb00"/><rect x="11" y="11" width="1" height="1" fill="#fffb00"/><rect x="12" y="11" width="1" height="1" fill="#fffb00"/><rect x="13" y="11" width="1" height="1" fill="#0a0e1a"/><rect x="1" y="12" width="1" height="1" fill="#0a0e1a"/><rect x="2" y="12" width="1" height="1" fill="#fffb00"/><rect x="3" y="12" width="1" height="1" fill="#fffb00"/><rect x="4" y="12" width="1" height="1" fill="#fffb00"/><rect x="5" y="12" width="1" height="1" fill="#fffb00"/><rect x="6" y="12" width="1" height="1" fill="#fffb00"/><rect x="7" y="12" width="1" height="1" fill="#fffb00"/><rect x="8" y="12" width="1" height="1" fill="#fffb00"/><rect x="9" y="12" width="1" height="1" fill="#fffb00"/><rect x="10" y="12" width="1" height="1" fill="#fffb00"/><rect x="11" y="12" width="1" height="1" fill="#fffb00"/><rect x="12" y="12" width="1" height="1" fill="#fffb00"/><rect x="13" y="12" width="1" height="1" fill="#0a0e1a"/><rect x="1" y="13" width="1" height="1" fill="#0a0e1a"/><rect x="2" y="13" width="1" height="1" fill="#0a0e1a"/><rect x="3" y="13" width="1" height="1" fill="#0a0e1a"/><rect x="4" y="13" width="1" height="1" fill="#0a0e1a"/><rect x="5" y="13" width="1" height="1" fill="#0a0e1a"/><rect x="6" y="13" width="1" height="1" fill="#0a0e1a"/><rect x="7" y="13" width="1" height="1" fill="#0a0e1a"/><rect x="8" y="13" width="1" height="1" fill="#0a0e1a"/><rect x="9" y="13" width="1" height="1" fill="#0a0e1a"/><rect x="10" y="13" width="1" height="1" fill="#0a0e1a"/><rect x="11" y="13" width="1" height="1" fill="#0a0e1a"/><rect x="12" y="13" width="1" height="1" fill="#0a0e1a"/><rect x="13" y="13" width="1" height="1" fill="#0a0e1a"/></g>
    <text x="1054" y="369" font-size="20" fill="#e0e0ff" text-anchor="middle" letter-spacing="2" font-weight="bold">PAPER</text>
  </g>
  <g>
    <text x="1328" y="90" font-size="11" fill="#a0a4c0" text-anchor="middle" letter-spacing="1">0X03</text>
    <g transform="translate(1216, 110) scale(14)"><rect x="1" y="1" width="1" height="1" fill="#0a0e1a"/><rect x="2" y="1" width="1" height="1" fill="#0a0e1a"/><rect x="12" y="1" width="1" height="1" fill="#0a0e1a"/><rect x="13" y="1" width="1" height="1" fill="#0a0e1a"/><rect x="1" y="2" width="1" height="1" fill="#0a0e1a"/><rect x="2" y="2" width="1" height="1" fill="#ff2bd6"/><rect x="3" y="2" width="1" height="1" fill="#0a0e1a"/><rect x="11" y="2" width="1" height="1" fill="#0a0e1a"/><rect x="12" y="2" width="1" height="1" fill="#ff2bd6"/><rect x="13" y="2" width="1" height="1" fill="#0a0e1a"/><rect x="2" y="3" width="1" height="1" fill="#0a0e1a"/><rect x="3" y="3" width="1" height="1" fill="#ff2bd6"/><rect x="4" y="3" width="1" height="1" fill="#0a0e1a"/><rect x="10" y="3" width="1" height="1" fill="#0a0e1a"/><rect x="11" y="3" width="1" height="1" fill="#ff2bd6"/><rect x="12" y="3" width="1" height="1" fill="#0a0e1a"/><rect x="3" y="4" width="1" height="1" fill="#0a0e1a"/><rect x="4" y="4" width="1" height="1" fill="#ff2bd6"/><rect x="5" y="4" width="1" height="1" fill="#0a0e1a"/><rect x="9" y="4" width="1" height="1" fill="#0a0e1a"/><rect x="10" y="4" width="1" height="1" fill="#ff2bd6"/><rect x="11" y="4" width="1" height="1" fill="#0a0e1a"/><rect x="4" y="5" width="1" height="1" fill="#0a0e1a"/><rect x="5" y="5" width="1" height="1" fill="#ff2bd6"/><rect x="6" y="5" width="1" height="1" fill="#0a0e1a"/><rect x="8" y="5" width="1" height="1" fill="#0a0e1a"/><rect x="9" y="5" width="1" height="1" fill="#ff2bd6"/><rect x="10" y="5" width="1" height="1" fill="#0a0e1a"/><rect x="5" y="6" width="1" height="1" fill="#0a0e1a"/><rect x="6" y="6" width="1" height="1" fill="#ff2bd6"/><rect x="7" y="6" width="1" height="1" fill="#0a0e1a"/><rect x="8" y="6" width="1" height="1" fill="#ff2bd6"/><rect x="9" y="6" width="1" height="1" fill="#0a0e1a"/><rect x="6" y="7" width="1" height="1" fill="#0a0e1a"/><rect x="7" y="7" width="1" height="1" fill="#0a0e1a"/><rect x="8" y="7" width="1" height="1" fill="#0a0e1a"/><rect x="6" y="8" width="1" height="1" fill="#0a0e1a"/><rect x="7" y="8" width="1" height="1" fill="#0a0e1a"/><rect x="8" y="8" width="1" height="1" fill="#0a0e1a"/><rect x="5" y="9" width="1" height="1" fill="#0a0e1a"/><rect x="6" y="9" width="1" height="1" fill="#ff2bd6"/><rect x="7" y="9" width="1" height="1" fill="#0a0e1a"/><rect x="8" y="9" width="1" height="1" fill="#ff2bd6"/><rect x="9" y="9" width="1" height="1" fill="#0a0e1a"/><rect x="4" y="10" width="1" height="1" fill="#0a0e1a"/><rect x="5" y="10" width="1" height="1" fill="#ff2bd6"/><rect x="6" y="10" width="1" height="1" fill="#0a0e1a"/><rect x="8" y="10" width="1" height="1" fill="#0a0e1a"/><rect x="9" y="10" width="1" height="1" fill="#ff2bd6"/><rect x="10" y="10" width="1" height="1" fill="#0a0e1a"/><rect x="3" y="11" width="1" height="1" fill="#0a0e1a"/><rect x="4" y="11" width="1" height="1" fill="#ff2bd6"/><rect x="5" y="11" width="1" height="1" fill="#0a0e1a"/><rect x="9" y="11" width="1" height="1" fill="#0a0e1a"/><rect x="10" y="11" width="1" height="1" fill="#ff2bd6"/><rect x="11" y="11" width="1" height="1" fill="#0a0e1a"/><rect x="2" y="12" width="1" height="1" fill="#0a0e1a"/><rect x="3" y="12" width="1" height="1" fill="#ff2bd6"/><rect x="4" y="12" width="1" height="1" fill="#0a0e1a"/><rect x="10" y="12" width="1" height="1" fill="#0a0e1a"/><rect x="11" y="12" width="1" height="1" fill="#ff2bd6"/><rect x="12" y="12" width="1" height="1" fill="#0a0e1a"/><rect x="1" y="13" width="1" height="1" fill="#0a0e1a"/><rect x="2" y="13" width="1" height="1" fill="#ff2bd6"/><rect x="3" y="13" width="1" height="1" fill="#0a0e1a"/><rect x="11" y="13" width="1" height="1" fill="#0a0e1a"/><rect x="12" y="13" width="1" height="1" fill="#ff2bd6"/><rect x="13" y="13" width="1" height="1" fill="#0a0e1a"/><rect x="1" y="14" width="1" height="1" fill="#0a0e1a"/><rect x="2" y="14" width="1" height="1" fill="#0a0e1a"/><rect x="12" y="14" width="1" height="1" fill="#0a0e1a"/><rect x="13" y="14" width="1" height="1" fill="#0a0e1a"/></g>
    <text x="1328" y="369" font-size="20" fill="#e0e0ff" text-anchor="middle" letter-spacing="2" font-weight="bold">SCISSORS</text>
  </g>
</svg>

