<svg xmlns="http://www.w3.org/2000/svg" width="512" height="512" viewBox="0 0 32 32" shape-rendering="crispEdges">
  <rect x="13" y="0" width="6" height="1" fill="#ff2bd6"/>
  <rect x="10" y="1" width="12" height="1" fill="#ff2bd6"/>
  <rect x="8" y="2" width="16" height="1" fill="#ff2bd6"/>
  <rect x="7" y="3" width="18" height="1" fill="#ff2bd6"/>
  <rect x="5" y="4" width="22" height="1" fill="#ff2bd6"/>
  <rect x="4" y="5" width="24" height="1" fill="#ff2bd6"/>
  <rect x="4" y="6" width="24" height="1" fill="#ff2bd6"/>
  <rect x="3" y="7" width="26" height="1" fill="#ff2bd6"/>
  <rect x="2" y="8" width="28" height="1" fill="#ff2bd6"/>
  <rect x="2" y="9" width="28" height="1" fill="#ff2bd6"/>
  <rect x="1" y="10" width="30" height="1" fill="#ff2bd6"/>
  <rect x="1" y="11" width="30" height="1" fill="#ff2bd6"/>
  <rect x="1" y="12" width="30" height="1" fill="#ff2bd6"/>
  <rect x="1" y="13" width="30" height="1" fill="#ff2bd6"/>
  <rect x="1" y="14" width="30" height="1" fill="#ff2bd6"/>
  <rect x="1" y="15" width="30" height="1" fill="#ff2bd6"/>
  <rect x="1" y="16" width="30" height="1" fill="#ff2bd6"/>
  <rect x="1" y="17" width="30" height="1" fill="#ff2bd6"/>
  <rect x="1" y="18" width="30" height="1" fill="#ff2bd6"/>
  <rect x="1" y="19" width="30" height="1" fill="#ff2bd6"/>
  <rect x="1" y="20" width="30" height="1" fill="#ff2bd6"/>
  <rect x="1" y="21" width="30" height="1" fill="#ff2bd6"/>
  <rect x="2" y="22" width="28" height="1" fill="#ff2bd6"/>
  <rect x="2" y="23" width="28" height="1" fill="#ff2bd6"/>
  <rect x="3" y="24" width="26" height="1" fill="#ff2bd6"/>
  <rect x="4" y="25" width="24" height="1" fill="#ff2bd6"/>
  <rect x="4" y="26" width="24" height="1" fill="#ff2bd6"/>
  <rect x="5" y="27" width="22" height="1" fill="#ff2bd6"/>
  <rect x="7" y="28" width="18" height="1" fill="#ff2bd6"/>
  <rect x="8" y="29" width="16" height="1" fill="#ff2bd6"/>
  <rect x="10" y="30" width="12" height="1" fill="#ff2bd6"/>
  <rect x="13" y="31" width="6" height="1" fill="#ff2bd6"/>
  <rect x="14" y="0" width="4" height="1" fill="#9c168a"/>
  <rect x="11" y="1" width="10" height="1" fill="#9c168a"/>
  <rect x="9" y="2" width="14" height="1" fill="#9c168a"/>
  <rect x="8" y="3" width="16" height="1" fill="#9c168a"/>
  <rect x="6" y="4" width="20" height="1" fill="#9c168a"/>
  <rect x="5" y="5" width="22" height="1" fill="#9c168a"/>
  <rect x="5" y="6" width="22" height="1" fill="#9c168a"/>
  <rect x="4" y="7" width="24" height="1" fill="#9c168a"/>
  <rect x="3" y="8" width="26" height="1" fill="#9c168a"/>
  <rect x="3" y="9" width="26" height="1" fill="#9c168a"/>
  <rect x="2" y="10" width="28" height="1" fill="#9c168a"/>
  <rect x="2" y="11" width="28" height="1" fill="#9c168a"/>
  <rect x="2" y="12" width="28" height="1" fill="#9c168a"/>
  <rect x="2" y="13" width="28" height="1" fill="#9c168a"/>
  <rect x="2" y="14" width="28" height="1" fill="#9c168a"/>
  <rect x="2" y="15" width="28" height="1" fill="#9c168a"/>
  <rect x="2" y="16" width="28" height="1" fill="#9c168a"/>
  <rect x="2" y="17" width="28" height="1" fill="#9c168a"/>
  <rect x="2" y="18" width="28" height="1" fill="#9c168a"/>
  <rect x="2" y="19" width="28" height="1" fill="#9c168a"/>
  <rect x="2" y="20" width="28" height="1" fill="#9c168a"/>
  <rect x="2" y="21" width="28" height="1" fill="#9c168a"/>
  <rect x="3" y="22" width="26" height="1" fill="#9c168a"/>
  <rect x="3" y="23" width="26" height="1" fill="#9c168a"/>
  <rect x="4" y="24" width="24" height="1" fill="#9c168a"/>
  <rect x="5" y="25" width="22" height="1" fill="#9c168a"/>
  <rect x="5" y="26" width="22" height="1" fill="#9c168a"/>
  <rect x="6" y="27" width="20" height="1" fill="#9c168a"/>
  <rect x="8" y="28" width="16" height="1" fill="#9c168a"/>
  <rect x="9" y="29" width="14" height="1" fill="#9c168a"/>
  <rect x="11" y="30" width="10" height="1" fill="#9c168a"/>
  <rect x="14" y="31" width="4" height="1" fill="#9c168a"/>
  <rect x="15" y="0" width="2" height="1" fill="#1a0d24"/>
  <rect x="12" y="1" width="8" height="1" fill="#1a0d24"/>
  <rect x="10" y="2" width="12" height="1" fill="#1a0d24"/>
  <rect x="9" y="3" width="14" height="1" fill="#1a0d24"/>
  <rect x="7" y="4" width="18" height="1" fill="#1a0d24"/>
  <rect x="6" y="5" width="20" height="1" fill="#1a0d24"/>
  <rect x="6" y="6" width="20" height="1" fill="#1a0d24"/>
  <rect x="5" y="7" width="22" height="1" fill="#1a0d24"/>
  <rect x="4" y="8" width="24" height="1" fill="#1a0d24"/>
  <rect x="4" y="9" width="24" height="1" fill="#1a0d24"/>
  <rect x="3" y="10" width="26" height="1" fill="#1a0d24"/>
  <rect x="3" y="11" width="26" height="1" fill="#1a0d24"/>
  <rect x="3" y="12" width="26" height="1" fill="#1a0d24"/>
  <rect x="3" y="13" width="26" height="1" fill="#1a0d24"/>
  <rect x="3" y="14" width="26" height="1" fill="#1a0d24"/>
  <rect x="3" y="15" width="26" height="1" fill="#1a0d24"/>
  <rect x="3" y="16" width="26" height="1" fill="#1a0d24"/>
  <rect x="3" y="17" width="26" height="1" fill="#1a0d24"/>
  <rect x="3" y="18" width="26" height="1" fill="#1a0d24"/>
  <rect x="3" y="19" width="26" height="1" fill="#1a0d24"/>
  <rect x="3" y="20" width="26" height="1" fill="#1a0d24"/>
  <rect x="3" y="21" width="26" height="1" fill="#1a0d24"/>
  <rect x="4" y="22" width="24" height="1" fill="#1a0d24"/>
  <rect x="4" y="23" width="24" height="1" fill="#1a0d24"/>
  <rect x="5" y="24" width="22" height="1" fill="#1a0d24"/>
  <rect x="6" y="25" width="20" height="1" fill="#1a0d24"/>
  <rect x="6" y="26" width="20" height="1" fill="#1a0d24"/>
  <rect x="7" y="27" width="18" height="1" fill="#1a0d24"/>
  <rect x="9" y="28" width="14" height="1" fill="#1a0d24"/>
  <rect x="10" y="29" width="12" height="1" fill="#1a0d24"/>
  <rect x="12" y="30" width="8" height="1" fill="#1a0d24"/>
  <rect x="15" y="31" width="2" height="1" fill="#1a0d24"/>
  <rect x="15" y="0" width="2" height="2" fill="#1a0d24"/>
  <rect x="15" y="30" width="2" height="2" fill="#1a0d24"/>
  <rect x="0" y="15" width="2" height="2" fill="#1a0d24"/>
  <rect x="30" y="15" width="2" height="2" fill="#1a0d24"/>
  <rect x="15" y="6" width="1" height="1" fill="#00f5d4"/>
  <rect x="14" y="7" width="1" height="1" fill="#00f5d4"/>
  <rect x="15" y="7" width="1" height="1" fill="#00f5d4"/>
  <rect x="16" y="7" width="1" height="1" fill="#00f5d4"/>
  <rect x="13" y="8" width="1" height="1" fill="#00f5d4"/>
  <rect x="14" y="8" width="1" height="1" fill="#00f5d4"/>
  <rect x="15" y="8" width="1" height="1" fill="#00f5d4"/>
  <rect x="16" y="8" width="1" height="1" fill="#00f5d4"/>
  <rect x="17" y="8" width="1" height="1" fill="#00f5d4"/>
  <rect x="14" y="9" width="1" height="1" fill="#00f5d4"/>
  <rect x="15" y="9" width="1" height="1" fill="#00f5d4"/>
  <rect x="16" y="9" width="1" height="1" fill="#00f5d4"/>
  <rect x="15" y="10" width="1" height="1" fill="#00f5d4"/>
  <rect x="8" y="12" width="4" height="1" fill="#fffb00"/>
  <rect x="8" y="13" width="1" height="1" fill="#fffb00"/>
  <rect x="12" y="13" width="1" height="1" fill="#fffb00"/>
  <rect x="8" y="14" width="4" height="1" fill="#fffb00"/>
  <rect x="8" y="15" width="1" height="1" fill="#fffb00"/>
  <rect x="10" y="15" width="1" height="1" fill="#fffb00"/>
  <rect x="8" y="16" width="1" height="1" fill="#fffb00"/>
  <rect x="11" y="16" width="2" height="1" fill="#fffb00"/>
  <rect x="14" y="12" width="4" height="1" fill="#fffb00"/>
  <rect x="14" y="13" width="1" height="1" fill="#fffb00"/>
  <rect x="18" y="13" width="1" height="1" fill="#fffb00"/>
  <rect x="14" y="14" width="4" height="1" fill="#fffb00"/>
  <rect x="14" y="15" width="1" height="1" fill="#fffb00"/>
  <rect x="14" y="16" width="1" height="1" fill="#fffb00"/>
  <rect x="21" y="12" width="4" height="1" fill="#fffb00"/>
  <rect x="20" y="13" width="1" height="1" fill="#fffb00"/>
  <rect x="21" y="14" width="3" height="1" fill="#fffb00"/>
  <rect x="24" y="15" width="1" height="1" fill="#fffb00"/>
  <rect x="20" y="16" width="4" height="1" fill="#fffb00"/>
  <rect x="15" y="21" width="1" height="1" fill="#00f5d4"/>
  <rect x="14" y="22" width="1" height="1" fill="#00f5d4"/>
  <rect x="15" y="22" width="1" height="1" fill="#00f5d4"/>
  <rect x="16" y="22" width="1" height="1" fill="#00f5d4"/>
  <rect x="13" y="23" width="1" height="1" fill="#00f5d4"/>
  <rect x="14" y="23" width="1" height="1" fill="#00f5d4"/>
  <rect x="15" y="23" width="1" height="1" fill="#00f5d4"/>
  <rect x="16" y="23" width="1" height="1" fill="#00f5d4"/>
  <rect x="17" y="23" width="1" height="1" fill="#00f5d4"/>
  <rect x="14" y="24" width="1" height="1" fill="#00f5d4"/>
  <rect x="15" y="24" width="1" height="1" fill="#00f5d4"/>
  <rect x="16" y="24" width="1" height="1" fill="#00f5d4"/>
  <rect x="15" y="25" width="1" height="1" fill="#00f5d4"/>
</svg>